<?xml version="1.0" encoding="UTF-8"?><svg id="Layer_1" xmlns="http://www.w3.org/2000/svg" viewBox="0 0 84.26 84.26"><defs><style>.cls-1{fill:#231f20;stroke:#fff;stroke-miterlimit:10;stroke-width:.5px;}.cls-2{fill:#1b1c4c;}.cls-3{fill:#fc3;}.cls-4{fill:#fff;stroke:#000;}</style></defs><path class="cls-2" d="M42.14,0c23.29,0,42.14,18.88,42.12,42.16-.02,23.29-18.89,42.13-42.17,42.1C18.81,84.23-.02,65.37,0,42.1,.02,18.82,18.87,0,42.14,0Zm41.15,42.13c0-22.73-18.4-41.15-41.13-41.17C19.42,.94,.97,19.37,.96,42.12c0,22.74,18.42,41.17,41.16,41.17,22.74,0,41.17-18.42,41.17-41.16Z"/><path class="cls-4" d="M83.29,42.13c0,22.74-18.43,41.16-41.17,41.16-22.74,0-41.16-18.43-41.16-41.17C.97,19.37,19.42,.94,42.17,.96c22.73,.02,41.13,18.45,41.13,41.17Zm-1.38,0c0-21.96-17.77-39.77-39.73-39.79C20.19,2.32,2.37,20.1,2.34,42.09c-.02,21.99,17.77,39.81,39.76,39.82,21.99,.01,39.8-17.78,39.81-39.77Z"/><circle class="cls-3" cx="41.96" cy="42.07" r="39.6"/><path d="M26.62,35.75c.4-.68,.82-1.34,1.18-2.03,.68-1.34,1.33-2.69,1.96-4.04,.82-1.76,2-3.24,3.37-4.59,.05-.05,.12-.08,.18-.12,.03,.02,.06,.04,.09,.05-.08,.19-.15,.39-.25,.58-.42,.77-.67,1.6-.84,2.46-.26,1.26-.09,2.5,.14,3.75,.15,.79,.26,1.59,.38,2.39,.03,.22,0,.45,0,.73,.22-.31,.42-.6,.61-.89,1.14-1.67,2.12-3.43,2.87-5.32,.32-.81,.6-1.63,.58-2.52-.02-.64-.13-.82-.74-1.01-.37-.12-.5-.31-.46-.7,.07-.66,.41-1.05,1.04-1.17,.59-.12,1.07,.13,1.37,.71,.42,.8,.32,1.62,.1,2.45-.36,1.39-1.03,2.64-1.79,3.84-1.69,2.68-3.42,5.33-5.15,7.99-.2,.3-.44,.58-.66,.87-.04-.01-.07-.03-.11-.04-.02-.1-.06-.2-.05-.3,.16-1.63-.16-3.2-.51-4.77-.21-.96-.25-1.94-.14-2.92,.01-.08,0-.17,0-.25-.03-.01-.05-.02-.08-.03-.18,.29-.38,.57-.54,.88-.79,1.49-1.54,3.01-2.38,4.47-.49,.84-1.13,1.6-1.69,2.4-.3,.43-.57,.89-.85,1.33-.11,.18-.21,.37-.34,.53-.05,.07-.16,.09-.25,.13-.03-.09-.1-.18-.09-.26,.07-.39,.13-.79,.24-1.17,.44-1.62,.93-3.22,1.35-4.85,.41-1.62,.78-3.26,1.1-4.91,.11-.57,.06-1.17,.02-1.75-.04-.51-.29-.73-.74-.8-1.34-.21-2.48,.24-3.43,1.14-1.39,1.31-2.22,2.95-2.47,4.84-.07,.51,.06,1.05,.15,1.56,.07,.37,.32,.66,.65,.87,.57,.37,1.03,.34,1.52-.12,.21-.2,.39-.43,.59-.64,.06-.06,.16-.09,.24-.13,.01,.09,.05,.2,.03,.28-.24,.68-.67,1.22-1.18,1.71-.15,.14-.33,.26-.51,.37-1.25,.75-2.55-.06-2.88-1.2-.24-.84-.15-1.66,.1-2.48,.48-1.59,1.3-3,2.38-4.26,.83-.97,1.77-1.82,2.89-2.45,.83-.46,1.71-.73,2.66-.72,1.47,0,2.35,.87,2.39,2.34,.03,.95-.12,1.88-.41,2.77-.53,1.6-1.11,3.19-1.67,4.78-.03,.07-.05,.14-.07,.21,.02,0,.04,.02,.06,.03Z"/><path d="M34.05,39.96c-.05,.15-.09,.27-.14,.39-.84,2.01-1.67,4.02-2.51,6.03-.1,.24-.2,.49-.21,.74,0,.19,.07,.47,.22,.57,.12,.08,.43,.02,.57-.09,.25-.19,.46-.44,.63-.71,.48-.76,.93-1.54,1.4-2.3,.05-.09,.12-.16,.19-.24,.02,0,.05,.02,.07,.03,0,.07,0,.15-.02,.21-.66,1.3-1.27,2.63-2.32,3.69-.36,.36-.8,.6-1.32,.65-.54,.05-.94-.14-1.06-.66-.29,.26-.58,.53-.88,.77-.52,.43-1.15,.6-1.81,.64-.79,.04-1.26-.49-1.21-1.33,0-.14,.02-.29-.04-.45-.17,.29-.34,.58-.5,.88-.28,.5-.59,.98-1.08,1.3-.16,.11-.34,.21-.53,.27-.84,.28-1.48-.27-1.28-1.13,.12-.49,.37-.94,.56-1.41,.2-.49,.4-.97,.57-1.47,.04-.13-.04-.3-.07-.45-.15,.05-.34,.06-.45,.16-.57,.5-.88,1.18-1.15,1.87-.35,.9-.68,1.81-1.01,2.72-.09,.24-.21,.37-.48,.41-.39,.05-.78,.16-1.17,.24-.07,.01-.15,.01-.29,.03,.16-.42,.29-.79,.44-1.16,.42-1.06,.86-2.11,1.27-3.17,.13-.33,.22-.68,.3-1.03,.05-.21,.14-.3,.35-.33,.33-.05,.65-.12,.97-.2,.25-.06,.46-.06,.48,.33,.36-.43,.77-.68,1.28-.75,.74-.1,1.29,.42,1.13,1.14-.14,.59-.38,1.15-.59,1.72-.16,.42-.35,.83-.5,1.25-.04,.12,.01,.27,.02,.41,.13-.06,.29-.09,.38-.18,.22-.25,.43-.53,.62-.81,.82-1.19,1.61-2.41,2.47-3.57,.48-.65,1.16-1.12,1.99-1.24,.35-.06,.73,0,1.08,.08,.21,.04,.29,.04,.37-.17,.39-1.02,.8-2.03,1.19-3.04,.09-.22,.21-.33,.45-.37,.46-.07,.92-.18,1.38-.27,.06-.01,.13,0,.24,0Zm-6.9,8.65c.07,.41,.18,.56,.56,.52,.24-.03,.52-.12,.7-.28,.26-.24,.51-.53,.65-.85,.42-1,.79-2.03,1.16-3.05,.06-.17,.06-.37,.07-.56,0-.22-.11-.32-.33-.34-.38-.03-.62,.18-.83,.45-.61,.79-1.05,1.68-1.43,2.59-.21,.49-.36,1.01-.54,1.51Z"/><path d="M52.27,27.16c-.15,.11-.29,.26-.46,.34-.48,.23-.72,.62-.76,1.13-.02,.17,.03,.37,.11,.51,.31,.52,.63,1.02,.97,1.51,.67,.98,.73,2.04,.05,2.9-.74,.94-1.74,1.39-2.95,1.21-.27-.04-.53-.22-.77-.37-.15-.09-.18-.25-.06-.42,.13-.17,.23-.35,.37-.51,.14-.16,.26-.12,.33,.07,.04,.13,.05,.27,.08,.41,.08,.41,.36,.59,.76,.52,.79-.14,1.17-.98,.82-1.79-.22-.51-.6-.87-1.01-1.21-.29-.24-.6-.47-.88-.68-.24,.39-.57,.94-.92,1.48-.59,.9-1.17,1.81-1.82,2.67-.43,.57-1.02,.98-1.76,1.11-.53,.09-.95-.12-1.18-.6-.31-.65-.3-1.33-.11-1.99,.23-.83,.51-1.64,.8-2.45,.66-1.84,1.36-3.67,2.02-5.51,.12-.34,.17-.72,.23-1.08,.03-.21,.11-.34,.34-.38,.6-.12,1.19-.27,1.78-.4,.3-.07,.38-.01,.31,.3-.09,.38-.23,.74-.36,1.1-.95,2.59-1.91,5.17-2.85,7.76-.11,.3-.13,.65-.12,.97,.02,.44,.33,.61,.67,.34,.38-.31,.71-.69,1.01-1.08,.46-.62,.88-1.29,1.31-1.93,.03-.05,.07-.1,.11-.14,.27-.34,.48-.68,.62-1.12,.26-.81,.79-1.52,1.54-2,.53-.34,1.09-.61,1.71-.75,.02,.03,.04,.06,.07,.1Z"/><path class="cls-1" d="M67.28,45.99c-7.4,1.36-14.81,2.72-22.27,4.09,.29,.49,.55,.95,.85,1.46-7.86,.95-15.67,1.9-23.48,2.85,0-.03-.01-.06-.02-.09,7.06-1.31,14.13-2.63,21.22-3.95-.24-.49-.47-.95-.72-1.45,8.15-1,16.27-2,24.38-3,.01,.03,.02,.06,.03,.1Z"/><path d="M70.18,25.9c-.12,.2-.24,.41-.36,.61-.6,1.01-1.19,2.03-1.81,3.04-.48,.78-1.1,1.43-2.03,1.68-1.01,.27-1.72-.35-1.64-1.4,.07-.81,.45-1.5,.79-2.21,.29-.61,.53-1.25,.75-1.89,.09-.25,.16-.6-.13-.76-.29-.16-.53,.1-.69,.29-.31,.37-.65,.76-.84,1.19-.48,1.08-.88,2.18-1.31,3.28-.26,.68-.5,1.37-.74,2.06-.07,.2-.18,.33-.41,.38-.72,.15-1.44,.32-2.23,.5,.07-.2,.11-.33,.16-.47,.74-1.95,1.49-3.9,2.22-5.85,.16-.42,.25-.86,.34-1.3,.04-.23,.15-.32,.36-.36,.53-.1,1.05-.22,1.58-.34,.36-.08,.43-.03,.49,.34,0,.06,0,.12,0,.21,.43-.6,.96-.97,1.67-1.1,1.18-.22,1.99,.55,1.68,1.71-.23,.86-.6,1.69-.9,2.53-.2,.54-.4,1.09-.58,1.64-.04,.11,.03,.26,.05,.39,.14-.03,.31-.02,.4-.1,.24-.23,.48-.49,.67-.76,.69-1.01,1.35-2.03,2.04-3.04,.09-.13,.24-.23,.37-.34,.04,.03,.07,.06,.11,.1Z"/><path d="M69.16,37.65c-.03,.09-.04,.19-.09,.26-.62,.94-1.21,1.91-1.88,2.81-.27,.36-.69,.64-1.11,.84-.6,.29-1.09,0-1.23-.65-.04-.21-.06-.43-.09-.67-.17,.32-.32,.62-.49,.91-.54,.92-1.41,1.34-2.33,1.12-.22-.05-.42-.2-.65-.31-.14,.39-.42,.72-.87,.89-.42,.16-.86,.2-1.3,.08-.74-.19-1.03-.56-1.06-1.32-.03-.69,.15-1.33,.44-1.94,.35-.74,.76-1.46,1.46-1.9,.45-.29,.99-.46,1.51-.61,.23-.07,.53,.04,.78,.12,.17,.06,.29,.11,.38-.1,.04-.08,.14-.15,.22-.17,.41-.1,.82-.18,1.23-.26,.04,0,.09,.02,.17,.03-.05,.16-.1,.29-.15,.43-.39,1.03-.78,2.05-1.16,3.09-.08,.22-.11,.47-.1,.7,.02,.44,.37,.62,.73,.37,.19-.13,.34-.33,.47-.53,1-1.49,1.55-3.17,2.17-4.83,.2-.53,.43-1.06,.62-1.59,.13-.37,.22-.76,.33-1.14,.03-.09,.08-.21,.15-.22,.52-.13,1.04-.23,1.67-.37-.08,.31-.11,.53-.19,.73-.74,1.91-1.49,3.81-2.22,5.73-.1,.26-.13,.56-.14,.85,0,.29,.2,.42,.44,.25,.25-.17,.47-.4,.66-.64,.42-.56,.81-1.14,1.22-1.71,.08-.11,.2-.2,.3-.3,.03,.02,.05,.04,.08,.05Zm-6.93,.35c-.07-.17-.1-.38-.2-.43-.12-.05-.31,.02-.47,.06-.06,.01-.11,.08-.16,.13-.89,.96-1.43,2.1-1.71,3.37-.05,.23,0,.5,.05,.74,.07,.29,.31,.38,.55,.2,.2-.15,.41-.34,.52-.56,.33-.66,.63-1.33,.91-2.01,.2-.49,.34-.99,.51-1.5Z"/><path d="M20.71,41.02c-.74,.04-1.43,.27-2.08,.6-1.36,.69-2.43,1.71-3.24,3-.24,.38-.45,.79-.44,1.25,0,.22,.04,.46,.14,.66,.27,.57,.64,.69,1.23,.43,.08-.04,.18-.06,.3-.1,0,.09,0,.13-.02,.16-.49,.55-1.11,.78-1.83,.69-.59-.08-.95-.49-1.15-1.03-.2-.52-.1-1.05,.12-1.54,.5-1.11,1.33-1.94,2.3-2.63,1.27-.9,2.64-1.59,4.21-1.76,.77-.08,1.55-.07,2.33-.09,.12,0,.23,.07,.35,.1v.13c-.24,.03-.49,.09-.73,.07-.68-.05-1.21,.21-1.47,.82-.46,1.09-.91,2.19-1.27,3.32-.42,1.31-.7,2.67-1.37,3.89-1.1,2.02-2.79,3.19-5.06,3.52-.39,.06-.79,.08-1.18,.04-.24-.02-.49-.16-.71-.3-.39-.24-.46-.63-.37-1.05,.09-.41,.32-.7,.75-.8,.33-.08,.73,.09,.92,.37,.13,.2,.1,.38-.03,.55-.17,.22-.22,.45-.05,.69,.16,.23,.41,.22,.65,.17,.77-.16,1.33-.66,1.85-1.21,.7-.75,1.07-1.7,1.49-2.62,.77-1.7,1.54-3.41,2.33-5.09,.44-.94,1.08-1.72,2.02-2.25Z"/><path d="M60.3,27.11c.04,.69-.12,1.35-.4,1.97-.71,1.57-1.63,2.98-3.07,3.98-.58,.4-1.22,.68-1.91,.72-1.33,.08-2.17-.64-2.02-2.16,.14-1.4,.87-2.56,1.67-3.67,.68-.94,1.48-1.75,2.56-2.24,.56-.25,1.15-.38,1.78-.29,.82,.11,1.34,.67,1.39,1.51,0,.06,0,.12,0,.18Zm-5.34,5.16s.06,.02,.08,.03c-.02,.69,.31,.91,.94,.58,.27-.14,.53-.34,.72-.57,1.12-1.36,1.82-2.92,2.15-4.65,.07-.39,.05-.82-.02-1.21-.09-.56-.53-.71-.96-.35-.2,.16-.38,.36-.53,.57-.76,1.09-1.3,2.29-1.75,3.53-.25,.68-.42,1.39-.63,2.08Z"/><path d="M37.33,35.71c.06-1.47,.53-2.62,1.12-3.73,.18-.33,.39-.65,.59-.97,.18-.28,.35-.55,.33-.91,0-.18,.09-.29,.28-.33,.61-.12,1.21-.26,1.81-.4,.22-.05,.28,0,.25,.24-.07,.62-.33,1.16-.6,1.71-.42,.86-.83,1.73-1.21,2.61-.12,.29-.18,.63-.19,.96-.02,.51,.33,.71,.74,.4,.35-.26,.67-.61,.91-.97,.48-.72,.89-1.49,1.34-2.23,.1-.16,.21-.32,.32-.47,.04-.04,.12-.05,.18-.07,.02,.06,.06,.13,.05,.19-.03,.13-.06,.25-.12,.37-.65,1.35-1.33,2.69-2.3,3.85-.54,.63-1.16,1.15-2.02,1.31-.52,.09-.98-.1-1.19-.58-.15-.36-.22-.75-.28-.96Z"/><path d="M39.92,41.72c-.26,.57-.49,1.05-.69,1.55-.29,.71-.58,1.42-.84,2.15-.08,.22-.1,.49-.06,.72,.05,.32,.33,.45,.61,.28,.25-.15,.49-.36,.65-.6,.43-.66,.8-1.36,1.2-2.04,.11-.18,.26-.35,.39-.52,.04,.02,.07,.04,.11,.06-.02,.09,0,.19-.05,.26-.62,1.03-1.21,2.09-1.89,3.08-.43,.62-1.1,.9-1.87,.68-.25-.07-.47-.25-.69-.38-.25,1.21-2.05,1.39-2.83,.77-.47-.38-.48-.89-.31-1.39,.21-.61,.48-1.2,.74-1.8,.23-.53,.49-1.05,.74-1.57,.04-.08,.08-.2,.14-.22,.44-.13,.88-.25,1.39-.38-.3,.65-.59,1.2-.81,1.78-.29,.76-.55,1.54-.79,2.32-.12,.39,.02,.72,.25,.82,.22,.09,.55,0,.75-.36,.36-.6,.67-1.22,.96-1.85,.37-.79,.75-1.59,1.06-2.41,.19-.49,.46-.75,.99-.78,.26-.01,.52-.1,.86-.17Z"/><path d="M46.04,40.8c-.26,.05-.49,.1-.72,.13-.08,0-.17-.06-.25-.09,.06-.08,.11-.2,.19-.22,.26-.08,.53-.1,.78-.19,.11-.04,.24-.14,.29-.25,.29-.72,.57-1.45,.84-2.18,.05-.14,.09-.29,.1-.43,0-.3,.14-.45,.44-.5,.35-.05,.68-.14,1.03-.2,.1-.02,.27-.02,.3,.04,.04,.08,.03,.23,0,.33-.34,.84-.7,1.68-1.05,2.51-.04,.09-.06,.18-.11,.31,.17-.03,.29-.06,.42-.06,.08,0,.15,.07,.23,.1-.06,.07-.1,.16-.17,.2-.11,.05-.23,.08-.35,.09-.28,.02-.42,.18-.5,.43-.29,.85-.59,1.7-.87,2.55-.08,.24-.09,.51-.09,.77,0,.27,.16,.37,.4,.24,.2-.11,.4-.27,.54-.45,.41-.55,.79-1.13,1.19-1.69,.14-.19,.32-.36,.48-.54,.04,.02,.08,.04,.11,.07-.05,.13-.07,.27-.14,.38-.54,.82-1.07,1.64-1.64,2.44-.31,.43-.69,.8-1.19,1.03-.74,.34-1.22,.09-1.38-.71-.1-.52,.03-1.02,.2-1.5,.29-.83,.6-1.65,.9-2.48,.01-.03,.02-.07,.04-.14Z"/><path d="M53.96,40.66c-.02,.09-.01,.19-.05,.27-.49,1.21-1.08,2.37-2.08,3.25-.19,.16-.39,.31-.61,.42-.66,.33-1.24-.04-1.13-.77,.07-.46,.27-.92,.48-1.34,.29-.58,.65-1.12,.98-1.68,.05-.09,.1-.19,.11-.34-.1,.07-.21,.12-.29,.2-.25,.24-.49,.5-.74,.75-.23,.23-.5,.39-.85,.36-.26-.02-.41-.16-.41-.42,0-.15,.02-.3,.07-.44,.23-.59,.58-1.11,1.05-1.55,.24-.23,.3-.21,.51,.06,.05,.07,.22,.13,.31,.1,.26-.07,.5-.21,.76-.28,.26-.07,.53-.13,.79-.13,.34,0,.49,.21,.34,.51-.31,.61-.68,1.2-1.01,1.8-.2,.37-.4,.74-.54,1.13-.06,.18-.06,.51,.05,.59,.21,.15,.45-.04,.58-.22,.41-.55,.79-1.12,1.19-1.68,.14-.21,.28-.42,.41-.62,.03,.01,.06,.03,.1,.04Z"/><path d="M56.84,38.22c.04,.54-.17,.94-.37,1.34-.31,.62-.64,1.24-.92,1.88-.11,.25-.17,.54-.18,.81-.01,.31,.19,.43,.45,.27,.22-.14,.44-.32,.59-.54,.4-.58,.76-1.2,1.14-1.79,.09-.13,.2-.25,.3-.38,.03,.02,.06,.03,.09,.04-.01,.09,0,.19-.04,.26-.54,1.14-1.09,2.28-2.04,3.15-.3,.27-.69,.48-1.07,.62-.48,.17-.86-.06-1.04-.54-.18-.46-.13-.92-.02-1.38,.23-.88,.58-1.7,1.1-2.45,.15-.22,.22-.5,.33-.75,.04-.08,.1-.19,.17-.21,.49-.12,.99-.22,1.51-.33Z"/><path d="M44.03,41.05c-.13,.09-.26,.18-.39,.26-.5,.32-.61,.78-.32,1.29,.17,.29,.36,.58,.54,.86,.39,.59,.6,1.22,.23,1.88-.4,.72-1.03,1.11-1.85,1.13-.29,0-.6-.1-.88-.2-.1-.04-.24-.25-.21-.31,.09-.19,.25-.35,.39-.51,0-.01,.1,.02,.12,.05,.04,.04,.05,.11,.06,.17,.1,.45,.22,.58,.52,.56,.35-.02,.67-.32,.71-.67,.04-.39-.06-.74-.33-1.02-.24-.26-.52-.5-.76-.76-.37-.39-.4-.74-.13-1.2,.46-.8,1.12-1.34,2.02-1.58,.08-.02,.16-.03,.25-.05,0,.03,.02,.06,.03,.09Z"/><path d="M42.64,26.78c0,.72-.45,1.16-1.19,1.16-.8,0-1.38-.57-1.38-1.36,0-.76,.49-1.24,1.23-1.24,.81,0,1.34,.57,1.34,1.44Z"/><path d="M56.58,35.38c.58,0,.99,.42,.99,1.01,0,.51-.38,.9-.88,.89-.57,0-1.02-.46-1.01-1.01,0-.54,.36-.89,.9-.89Z"/><path d="M46.48,62.48s0,.13-.03,.21c-.1,.26-.21,.52-.31,.78-.41,0-.84,.03-1.23-.05-.15-.03-.29-.34-.35-.54-.22-.68-.41-1.38-.62-2.07-.05-.17-.09-.32-.32-.32-.24,0-.27,.15-.31,.32-.15,.62-.3,1.24-.44,1.87-.05,.22-.12,.47,.2,.57,.04,.01,.08,.11,.07,.14-.03,.06-.09,.13-.14,.13-.51,0-1.02,.02-1.52-.02-.26-.02-.33-.22-.26-.54,.32-1.33,.65-2.66,.97-3.99,.14-.59,.27-1.19,.42-1.78,.05-.21,.05-.37-.17-.48-.05-.02-.1-.12-.08-.16,.02-.05,.1-.09,.16-.11,.05-.02,.12,0,.18,0,1.03,0,2.06,0,3.09,0,.88,0,1.4,.52,1.41,1.4,0,.97-.29,1.8-1.18,2.3-.21,.12-.46,.16-.74,.25,.21,.59,.4,1.19,.65,1.76,.07,.15,.35,.2,.58,.33Zm-2.2-3.09c.69,0,1.03-.17,1.19-.64,.08-.25,.09-.53,.11-.79,.02-.22-.11-.37-.33-.39-.32-.03-.65-.05-.98-.05-.07,0-.19,.13-.21,.22-.1,.34-.17,.7-.25,1.05q-.14,.61,.47,.6Z"/><path d="M18.45,59.08c.67,0,1.26,0,1.86,0,.33,0,.37,.05,.3,.37-.12,.59-.3,.74-.9,.74-.43,0-.86,0-1.29,0-.2,0-.29,.07-.33,.26-.13,.54-.26,1.09-.4,1.63-.05,.19,0,.26,.19,.26,.66,0,1.32,.01,1.98-.02,.14,0,.28-.16,.42-.24,.05-.03,.12-.06,.17-.08,.03,.06,.08,.13,.07,.18-.08,.35-.16,.7-.28,1.03-.09,.25-.34,.33-.59,.33-1.08,0-2.16,0-3.24,0-.41,0-.55-.21-.46-.61,.44-1.87,.88-3.73,1.33-5.59,.06-.24,.17-.49-.16-.64-.01,0,.02-.17,.07-.23,.03-.04,.13-.02,.2-.02,1.25,0,2.5,0,3.75,0,.36,0,.38,.04,.31,.38-.15,.7-.26,.79-.96,.79-.48,0-.96,0-1.44,0-.19,0-.29,.05-.33,.25-.07,.39-.17,.78-.26,1.21Z"/><path d="M28.5,59.08c.67,0,1.27,0,1.87,0,.34,0,.37,.04,.3,.36-.12,.59-.3,.74-.9,.75-.43,0-.86,0-1.29,0-.1,0-.26,.07-.28,.14-.18,.64-.34,1.29-.51,1.96,.11,.02,.17,.04,.24,.04,.63,0,1.26,0,1.89,0,.21,0,.39-.05,.51-.24,.03-.05,.11-.07,.16-.1,.03,.07,.1,.14,.08,.2-.08,.33-.15,.66-.26,.98-.1,.26-.33,.37-.6,.38-1.08,0-2.16,0-3.24,0-.45,0-.57-.22-.45-.71,.44-1.84,.87-3.67,1.31-5.51,.06-.24,.13-.47-.17-.62-.02,0,.02-.17,.07-.23,.03-.04,.13-.02,.2-.02,1.25,0,2.5,0,3.75,0,.37,0,.39,.03,.31,.38-.15,.69-.27,.79-.96,.79-.49,0-.98,0-1.47,0-.09,0-.25,.08-.27,.15-.12,.41-.2,.83-.31,1.3Z"/><path d="M53.94,56.45c.36,0,.72,0,1.08,0,.21,0,.28,.07,.25,.28-.09,.7-.31,.9-1.02,.9-.31,0-.62,0-.93,0-.39,0-.67,.17-.82,.54-.39,1.03-.68,2.09-.79,3.19-.02,.16,0,.32,0,.48,.02,.26,.17,.46,.42,.47,.55,.04,1.11,.05,1.67,.02,.18,0,.34-.18,.52-.26,.07-.04,.16-.04,.24-.07,0,.07,.03,.15,.03,.22,0,.05-.02,.1-.03,.15-.25,1.01-.34,1.11-1.38,1.19-.56,.04-1.14,.03-1.7-.03-.88-.1-1.46-.84-1.4-1.87,.04-.74,.2-1.49,.39-2.2,.19-.69,.46-1.36,.78-2,.35-.7,.99-1.02,1.78-1.01,.3,0,.6,0,.9,0Z"/><path d="M34.45,62.38c.15,0,.3,0,.45,0,.31,0,.59-.06,.82-.31,.04-.05,.14-.05,.21-.08,.02,.07,.08,.15,.07,.21-.1,.32-.19,.65-.33,.96-.13,.3-.44,.37-.73,.38-.62,.02-1.24,.04-1.85,0-.92-.05-1.57-.65-1.58-1.57-.02-1.66,.38-3.23,1.23-4.66,.36-.61,.96-.88,1.67-.88,.65,0,1.3,0,1.95,0,.25,0,.37,.05,.29,.35-.17,.72-.29,.83-1.03,.83-.3,0-.6,0-.9,0-.37,0-.69,.16-.8,.52-.29,1.02-.55,2.06-.81,3.09-.04,.17-.02,.36,0,.54,.02,.27,.15,.49,.44,.54,.3,.05,.61,.07,.92,.1,0-.01,0-.02,0-.03Z"/><path d="M38.71,57.63c-.39,0-.75-.01-1.11,0-.09,0-.17,.13-.26,.18-.04,.03-.11,.04-.16,.02-.03,0-.06-.09-.05-.13,.09-.4,.16-.82,.5-1.09,.13-.11,.34-.17,.52-.17,1.07-.02,2.14,0,3.21-.02,.17,0,.35-.1,.52-.16,.06-.02,.13-.04,.19-.03,.02,0,.04,.11,.03,.16-.05,.19-.1,.39-.16,.58-.18,.49-.37,.62-.89,.62-.74,0-.74,0-.92,.73-.36,1.46-.71,2.93-1.07,4.39-.06,.23-.07,.41,.2,.51,.05,.02,.1,.11,.09,.16,0,.05-.09,.13-.13,.13-.51,0-1.02-.01-1.52-.06-.09,0-.19-.21-.23-.33-.03-.12,.01-.26,.04-.38,.38-1.59,.76-3.19,1.13-4.78,.02-.1,.04-.19,.06-.34Z"/><path d="M22.97,62.32c.71,0,1.37,0,2.04,0,.11,0,.21-.14,.31-.21,.05-.03,.12-.05,.18-.08,.02,.07,.07,.14,.06,.2-.04,.26-.1,.53-.16,.79-.07,.28-.23,.47-.53,.49-.21,.02-.42,.03-.63,.03-.79,0-1.58,0-2.37,0-.63,0-.76-.15-.61-.76,.33-1.37,.66-2.73,1-4.1,.12-.5,.23-1.01,.36-1.52,.04-.18,.03-.31-.13-.41-.06-.04-.08-.14-.12-.21,.08-.03,.15-.09,.23-.09,.42,0,.84,0,1.26,0,.39,0,.48,.12,.39,.5-.16,.7-.33,1.4-.5,2.1-.25,1.02-.49,2.04-.73,3.06-.01,.06-.02,.12-.03,.22Z"/><path d="M49.19,56.45c.18,0,.36,0,.54,0,.42,0,.52,.13,.42,.53-.38,1.55-.76,3.1-1.15,4.65-.1,.39-.19,.78-.29,1.16-.05,.21,0,.35,.2,.44,.06,.03,.13,.12,.12,.16-.02,.06-.1,.14-.16,.14-.5,0-1,.01-1.49-.03-.27-.02-.34-.21-.27-.52,.45-1.89,.91-3.78,1.37-5.67,.06-.24,.14-.47-.18-.6-.04-.01-.07-.13-.06-.14,.05-.05,.12-.11,.19-.11,.25-.01,.5,0,.75,0h0Z"/><path d="M58.34,62.92c.45-1.86,.9-3.73,1.35-5.59,.06-.24,.14-.47-.18-.6-.04-.01-.07-.13-.06-.14,.05-.05,.12-.11,.19-.11,.25-.01,.5,0,.75,0h0c.18,0,.36,0,.54,0,.42,0,.52,.13,.42,.53-.38,1.55-.76,3.1-1.15,4.65-.1,.39-.19,.78-.29,1.16-.05,.21,0,.35,.2,.44,.06,.03,.13,.12,.12,.16-.02,.06-.1,.14-.16,.14-.5,0-1,.02-1.49-.02-.27-.02-.34-.21-.27-.52,0-.03,.01-.06,.02-.09"/><path d="M68.57,59.22c.3,0,.59,0,.89,0,.18,0,.23,.04,.21,.17-.08,.43-.26,.55-.84,.55-.26,0-.51,0-.77,0-.32,0-.56,.11-.67,.33-.33,.63-.56,1.28-.65,1.96-.01,.1,0,.2,0,.29,.02,.16,.14,.28,.35,.29,.46,.02,.92,.03,1.38,.01,.15,0,.28-.11,.43-.16,.06-.02,.13-.03,.2-.04,0,.05,.02,.09,.02,.14,0,.03-.02,.06-.03,.09-.21,.62-.28,.68-1.14,.73-.47,.03-.94,.02-1.41-.02-.73-.06-1.2-.52-1.16-1.15,.04-.46,.16-.91,.32-1.35,.16-.42,.38-.84,.64-1.23,.29-.43,.81-.62,1.46-.62,.25,0,.5,0,.74,0Z"/><path d="M62.87,61.17c.22-.02,.44,.03,.65,.1,.14,.05,.16,.36,.07,.81-.12,.55-.24,1.13-.39,1.65,0,.02-.01,.03-.02,.05,.36,.02,.7,.06,1.05,.11,.18-.63,.34-1.32,.48-2.05,.35-1.82,.2-2.9-.39-2.91-.7-.01-1.39,0-2.09,0-.04,0-.08-.02-.12,.02-.05,.04-.12,.12-.15,.23-.03,.09-.03,.29,0,.33,.11,.22,.04,.55-.08,.99-.32,1.16-.63,2.34-.94,3.5h0s.06-.04,.08-.04c.36-.13,.68-.11,1.01-.08,0,0,.01-.02,.02-.03,0-.01,0-.02,0-.04,.2-.73,.38-1.46,.59-2.18,.05-.19,.18-.46,.23-.46Z"/><rect class="cls-3" x="60.38" y="63.51" width="4.5" height="1.29"/><path class="cls-3" d="M62.71,61.45c.1-.53,.39-.93,.65-.88,.26,.04,.4,.51,.3,1.04-.1,.53-.39,.93-.65,.88-.26-.04-.4-.51-.3-1.04Z"/><path d="M56.1,64.11c.14-.11,.25-.24,.35-.39,.1-.15,.18-.31,.24-.48-.19,0-.34-.07-.47-.21s-.19-.3-.19-.5c0-.21,.07-.39,.21-.54,.14-.15,.32-.22,.54-.22,.24,0,.43,.09,.57,.27,.14,.18,.21,.39,.21,.64s-.06,.5-.18,.75c-.12,.25-.28,.48-.47,.68h-.82Z"/></svg>